2026-04-21 19:30:55,510 [INFO] OmniStream: main: application starting
2026-04-21 19:30:55,524 [DEBUG] OmniStream: main: stylesheet loaded from /home/phaylali/Documents/Apps/OmniStreamStudioPy/style.qss
2026-04-21 19:30:55,525 [INFO] OmniStream: ============================================================
2026-04-21 19:30:55,525 [INFO] OmniStream: MainWindow.__init__: starting OmniStream Studio
2026-04-21 19:30:55,525 [INFO] OmniStream: ============================================================
2026-04-21 19:30:55,525 [DEBUG] OmniStream: ConfigManager._load: path=/home/phaylali/Documents/Apps/OmniStreamStudioPy/data.json
2026-04-21 19:30:55,525 [INFO] OmniStream: ConfigManager._load: loaded 10 keys from existing file
2026-04-21 19:30:55,525 [DEBUG] OmniStream: MainWindow.setup_ui
2026-04-21 19:30:55,525 [INFO] OmniStream: DrawingCanvas.__init__: native resolution 1920x1080
2026-04-21 19:30:55,599 [DEBUG] OmniStream: MainWindow.setup_ui: UI built
2026-04-21 19:30:55,600 [DEBUG] OmniStream: MainWindow.load_config
2026-04-21 19:30:55,600 [DEBUG] OmniStream: ConfigManager.get: key='resolution' -> '1920x1080 (1080p)'
2026-04-21 19:30:55,600 [INFO] OmniStream: MainWindow.change_resolution: 1920x1080 (1080p)
2026-04-21 19:30:55,604 [INFO] OmniStream: MainWindow.change_resolution: canvas now 1920x1080
2026-04-21 19:30:55,605 [DEBUG] OmniStream: ConfigManager.get: key='bg_color' -> [30, 30, 30]
2026-04-21 19:30:55,605 [DEBUG] OmniStream: ConfigManager.get: key='brush_color' -> [255, 255, 255]
2026-04-21 19:30:55,605 [DEBUG] OmniStream: ConfigManager.get: key='brush_size' -> 5
2026-04-21 19:30:55,605 [DEBUG] OmniStream: ConfigManager.get: key='encoder' -> 'VAAPI (AMD GPU)'
2026-04-21 19:30:55,605 [DEBUG] OmniStream: ConfigManager.get: key='platform' -> 'Twitch'
2026-04-21 19:30:55,605 [DEBUG] OmniStream: ConfigManager.get: key='rtmp_url' -> 'rtmp://ingest.global-contribute.live-video.net/app/'
2026-04-21 19:30:55,606 [DEBUG] OmniStream: ConfigManager.get: key='stream_key' -> ***
2026-04-21 19:30:55,606 [DEBUG] OmniStream: ConfigManager.get: key='bitrate' -> 4000
2026-04-21 19:30:55,606 [DEBUG] OmniStream: ConfigManager.get: key='fps' -> '30'
2026-04-21 19:30:55,606 [DEBUG] OmniStream: ConfigManager.get: key='bitrate' -> 4000
2026-04-21 19:30:55,606 [INFO] OmniStream: MainWindow.load_config: loaded resolution=1920x1080 (1080p) encoder=VAAPI (AMD GPU) platform=Twitch bitrate=4000 fps=30
2026-04-21 19:30:55,606 [DEBUG] OmniStream: MainWindow.connect_signals
2026-04-21 19:30:55,650 [INFO] OmniStream: main: main window shown, entering event loop
2026-04-21 19:30:59,101 [DEBUG] OmniStream: SettingsPanel.toggle_stream: current=Start Stream
2026-04-21 19:30:59,102 [INFO] OmniStream: SettingsPanel.toggle_stream: emitting start with encoder=vaapi bitrate=4000 fps=30
2026-04-21 19:30:59,102 [INFO] OmniStream: MainWindow.start_stream: url=rtmp://ingest.global-contribute.live-video.net/app//*** bitrate=4000 fps=30 encoder=vaapi
2026-04-21 19:30:59,102 [INFO] OmniStream: StreamThread.__init__: 1920x1080 encoder=vaapi bitrate=4000k fps=30 url=rtmp://ingest.global-contribute.live-video.net/app/
2026-04-21 19:30:59,102 [DEBUG] OmniStream: SettingsPanel.set_streaming: streaming=True
2026-04-21 19:30:59,103 [INFO] OmniStream: MainWindow.start_stream: stream thread started, timers active
2026-04-21 19:30:59,103 [INFO] OmniStream: StreamThread.run: starting
2026-04-21 19:30:59,106 [DEBUG] OmniStream: StreamThread.run: full stream URL = rtmp://ingest.global-contribute.live-video.net/app//***
2026-04-21 19:30:59,107 [DEBUG] OmniStream: StreamThread.run: ffmpeg cmd = ffmpeg -y -vaapi_device /dev/dri/renderD128 -f rawvideo -vcodec rawvideo -s 1920x1080 -pix_fmt bgra -r 30 -i ...
2026-04-21 19:30:59,107 [INFO] OmniStream: MainWindow.on_stream_status: Starting stream...
2026-04-21 19:30:59,108 [INFO] OmniStream: StreamThread.run: ffmpeg process started (pid=116948)
2026-04-21 19:30:59,111 [INFO] OmniStream: MainWindow.on_stream_status: Streaming started
2026-04-21 19:30:59,147 [DEBUG] OmniStream: FFmpeg stderr: ffmpeg version n8.1 Copyright (c) 2000-2026 the FFmpeg developers
2026-04-21 19:30:59,150 [DEBUG] OmniStream: FFmpeg stderr: built with gcc 15.2.1 (GCC) 20260209
2026-04-21 19:30:59,151 [DEBUG] OmniStream: FFmpeg stderr: configuration: --prefix=/usr --disable-debug --disable-static --disable-stripping --enable-amf --enable-avisynth --enable-cuda-llvm --enable-lto --enable-fontconfig --enable-frei0r --enable-gmp --enable-gnutls --enable-gpl --enable-ladspa --enable-lcms2 --enable-libaom --enable-libass --enable-libbluray --enable-libbs2b --enable-libdav1d --enable-libdrm --enable-libdvdnav --enable-libdvdread --enable-libfreetype --enable-libfribidi --enable-libglslang --enable-libgsm --enable-libharfbuzz --enable-libiec61883 --enable-libjack --enable-libjxl --enable-libmodplug --enable-libmp3lame --enable-libopencore_amrnb --enable-libopencore_amrwb --enable-libopenjpeg --enable-libopenmpt --enable-libopus --enable-libplacebo --enable-libpulse --enable-librav1e --enable-librsvg --enable-librubberband --enable-libsnappy --enable-libsoxr --enable-libspeex --enable-libsrt --enable-libssh --enable-libsvtav1 --enable-libtheora --enable-libv4l2 --enable-libvidstab --enable-libvmaf --enable-libvorbis --enable-libvpl --enable-libvpx --enable-libwebp --enable-libx264 --enable-libx265 --enable-libxcb --enable-libxml2 --enable-libxvid --enable-libzimg --enable-libzmq --enable-nvdec --enable-nvenc --enable-opencl --enable-opengl --enable-shared --enable-vapoursynth --enable-version3 --enable-vulkan
2026-04-21 19:30:59,151 [DEBUG] OmniStream: FFmpeg stderr: libavutil      60. 26.100 / 60. 26.100
2026-04-21 19:30:59,151 [DEBUG] OmniStream: FFmpeg stderr: libavcodec     62. 28.100 / 62. 28.100
2026-04-21 19:30:59,152 [DEBUG] OmniStream: FFmpeg stderr: libavformat    62. 12.100 / 62. 12.100
2026-04-21 19:30:59,152 [DEBUG] OmniStream: FFmpeg stderr: libavdevice    62.  3.100 / 62.  3.100
2026-04-21 19:30:59,152 [DEBUG] OmniStream: FFmpeg stderr: libavfilter    11. 14.100 / 11. 14.100
2026-04-21 19:30:59,152 [DEBUG] OmniStream: FFmpeg stderr: libswscale      9.  5.100 /  9.  5.100
2026-04-21 19:30:59,152 [DEBUG] OmniStream: FFmpeg stderr: libswresample   6.  3.100 /  6.  3.100
2026-04-21 19:30:59,184 [DEBUG] OmniStream: FFmpeg stderr: Input #0, rawvideo, from 'fd:':
2026-04-21 19:30:59,185 [DEBUG] OmniStream: FFmpeg stderr: Duration: N/A, start: 0.000000, bitrate: 1990656 kb/s
2026-04-21 19:30:59,185 [DEBUG] OmniStream: FFmpeg stderr: Stream #0:0: Video: rawvideo (BGRA / 0x41524742), bgra, 1920x1080, 1990656 kb/s, 30 tbr, 30 tbn
2026-04-21 19:30:59,186 [DEBUG] OmniStream: FFmpeg stderr: [rtmp @ 0x559e6658ea80] Detected librtmp style URL parameters, these aren't supported by the libavformat internal RTMP handler currently enabled. See the documentation for the correct way to pass parameters.
2026-04-21 19:30:59,985 [DEBUG] OmniStream: FFmpeg stderr: [out#0/flv @ 0x559e66588a00] Error opening output rtmp://ingest.global-contribute.live-video.net/app//Traceback (most recent call last):
2026-04-21 19:30:59,986 [DEBUG] OmniStream: FFmpeg stderr: File "/home/phaylali/Documents/Apps/OmniStreamStudioPy/main.py", line 941, in update_stream_frame
2026-04-21 19:30:59,986 [DEBUG] OmniStream: FFmpeg stderr: frame_bytes = self.canvas.get_frame_bytes()
2026-04-21 19:30:59,986 [DEBUG] OmniStream: FFmpeg stderr: ^^^^^^^^^^^^^^^^^^^^^^^^^^^^^
2026-04-21 19:30:59,986 [DEBUG] OmniStream: FFmpeg stderr: File "/home/phaylali/Documents/Apps/OmniStreamStudioPy/main.py", line 292, in get_frame_bytes
2026-04-21 19:30:59,987 [DEBUG] OmniStream: FFmpeg stderr: return bytes(temp_image.constBits())
2026-04-21 19:30:59,987 [DEBUG] OmniStream: FFmpeg stderr: ^^^^^^^^^^^^^^^^^^^^^^^^^^^^^
2026-04-21 19:30:59,987 [DEBUG] OmniStream: FFmpeg stderr: IndexError: sip.voidptr object has an unknown size: Input/output error
2026-04-21 19:30:59,987 [DEBUG] OmniStream: FFmpeg stderr: Error opening output file rtmp://ingest.global-contribute.live-video.net/app//Traceback (most recent call last):
2026-04-21 19:30:59,987 [DEBUG] OmniStream: FFmpeg stderr: File "/home/phaylali/Documents/Apps/OmniStreamStudioPy/main.py", line 941, in update_stream_frame
2026-04-21 19:30:59,988 [DEBUG] OmniStream: FFmpeg stderr: frame_bytes = self.canvas.get_frame_bytes()
2026-04-21 19:30:59,988 [DEBUG] OmniStream: FFmpeg stderr: ^^^^^^^^^^^^^^^^^^^^^^^^^^^^^
2026-04-21 19:30:59,988 [DEBUG] OmniStream: FFmpeg stderr: File "/home/phaylali/Documents/Apps/OmniStreamStudioPy/main.py", line 292, in get_frame_bytes
2026-04-21 19:30:59,988 [DEBUG] OmniStream: FFmpeg stderr: return bytes(temp_image.constBits())
2026-04-21 19:30:59,988 [DEBUG] OmniStream: FFmpeg stderr: ^^^^^^^^^^^^^^^^^^^^^^^^^^^^^
2026-04-21 19:30:59,988 [DEBUG] OmniStream: FFmpeg stderr: IndexError: sip.voidptr object has an unknown size.
2026-04-21 19:30:59,989 [DEBUG] OmniStream: FFmpeg stderr: Error opening output files: Input/output error
2026-04-21 19:30:59,992 [ERROR] OmniStream: StreamThread.run: BrokenPipeError - stream connection lost (sent 1 frames)
2026-04-21 19:30:59,992 [ERROR] OmniStream: StreamThread.run: last 20 FFmpeg stderr lines:
2026-04-21 19:30:59,992 [ERROR] OmniStream:   Duration: N/A, start: 0.000000, bitrate: 1990656 kb/s
2026-04-21 19:30:59,992 [ERROR] OmniStream:   Stream #0:0: Video: rawvideo (BGRA / 0x41524742), bgra, 1920x1080, 1990656 kb/s, 30 tbr, 30 tbn
